<mxfile host="app.diagrams.net" modified="2021-05-10T05:54:52.274Z" agent="5.0 (Windows NT 10.0; Win64; x64) AppleWebKit/537.36 (KHTML, like Gecko) Chrome/90.0.4430.93 Safari/537.36" etag="iqjz7JmZHzi7CCj0nODG" version="14.6.10" type="github" pages="2">
  <diagram id="vT4fPESqwIpE75rcS8Uq" name="Page-1">
    <mxGraphModel dx="1320" dy="484" grid="1" gridSize="10" guides="1" tooltips="1" connect="1" arrows="1" fold="1" page="1" pageScale="1" pageWidth="827" pageHeight="1169" math="0" shadow="0">
      <root>
        <mxCell id="0" />
        <mxCell id="1" parent="0" />
        <mxCell id="wh-YE4orqxIFHQZLRvOB-8" style="edgeStyle=none;rounded=0;orthogonalLoop=1;jettySize=auto;html=1;exitX=1;exitY=0.5;exitDx=0;exitDy=0;entryX=0;entryY=0.5;entryDx=0;entryDy=0;startArrow=none;startFill=0;endArrow=none;endFill=0;strokeColor=#000000;" parent="1" source="wh-YE4orqxIFHQZLRvOB-2" target="wh-YE4orqxIFHQZLRvOB-3" edge="1">
          <mxGeometry relative="1" as="geometry" />
        </mxCell>
        <mxCell id="wh-YE4orqxIFHQZLRvOB-2" value="现场机" style="whiteSpace=wrap;html=1;aspect=fixed;" parent="1" vertex="1">
          <mxGeometry x="40" y="424" width="80" height="80" as="geometry" />
        </mxCell>
        <mxCell id="wh-YE4orqxIFHQZLRvOB-7" style="orthogonalLoop=1;jettySize=auto;html=1;entryX=1;entryY=0.5;entryDx=0;entryDy=0;rounded=0;startArrow=none;startFill=0;endArrow=none;endFill=0;exitX=0;exitY=0.5;exitDx=0;exitDy=0;" parent="1" source="wh-YE4orqxIFHQZLRvOB-3" target="wh-YE4orqxIFHQZLRvOB-4" edge="1">
          <mxGeometry relative="1" as="geometry">
            <mxPoint x="260" y="444" as="sourcePoint" />
          </mxGeometry>
        </mxCell>
        <mxCell id="wh-YE4orqxIFHQZLRvOB-25" style="edgeStyle=none;rounded=0;orthogonalLoop=1;jettySize=auto;html=1;exitX=1;exitY=0.5;exitDx=0;exitDy=0;entryX=0;entryY=0.5;entryDx=0;entryDy=0;startArrow=none;startFill=0;endArrow=none;endFill=0;strokeColor=#000000;" parent="1" source="wh-YE4orqxIFHQZLRvOB-3" target="wh-YE4orqxIFHQZLRvOB-10" edge="1">
          <mxGeometry relative="1" as="geometry" />
        </mxCell>
        <mxCell id="wh-YE4orqxIFHQZLRvOB-3" value="服务器监听端口" style="ellipse;whiteSpace=wrap;html=1;aspect=fixed;" parent="1" vertex="1">
          <mxGeometry x="270" y="424" width="80" height="80" as="geometry" />
        </mxCell>
        <mxCell id="wh-YE4orqxIFHQZLRvOB-4" value="现场机" style="whiteSpace=wrap;html=1;aspect=fixed;" parent="1" vertex="1">
          <mxGeometry x="40" y="304" width="80" height="80" as="geometry" />
        </mxCell>
        <mxCell id="wh-YE4orqxIFHQZLRvOB-9" style="edgeStyle=none;rounded=0;orthogonalLoop=1;jettySize=auto;html=1;exitX=1;exitY=0.5;exitDx=0;exitDy=0;entryX=0;entryY=0.5;entryDx=0;entryDy=0;startArrow=none;startFill=0;endArrow=none;endFill=0;strokeColor=#000000;" parent="1" source="wh-YE4orqxIFHQZLRvOB-5" target="wh-YE4orqxIFHQZLRvOB-3" edge="1">
          <mxGeometry relative="1" as="geometry" />
        </mxCell>
        <mxCell id="wh-YE4orqxIFHQZLRvOB-5" value="现场机" style="whiteSpace=wrap;html=1;aspect=fixed;" parent="1" vertex="1">
          <mxGeometry x="40" y="544" width="80" height="80" as="geometry" />
        </mxCell>
        <mxCell id="wh-YE4orqxIFHQZLRvOB-26" style="edgeStyle=none;rounded=0;orthogonalLoop=1;jettySize=auto;html=1;exitX=1;exitY=0.5;exitDx=0;exitDy=0;entryX=0;entryY=0.5;entryDx=0;entryDy=0;startArrow=none;startFill=0;endArrow=none;endFill=0;strokeColor=#000000;" parent="1" source="wh-YE4orqxIFHQZLRvOB-10" target="wh-YE4orqxIFHQZLRvOB-11" edge="1">
          <mxGeometry relative="1" as="geometry" />
        </mxCell>
        <mxCell id="wh-YE4orqxIFHQZLRvOB-10" value="报文解析" style="whiteSpace=wrap;html=1;aspect=fixed;" parent="1" vertex="1">
          <mxGeometry x="414" y="424" width="80" height="80" as="geometry" />
        </mxCell>
        <mxCell id="wh-YE4orqxIFHQZLRvOB-27" style="edgeStyle=none;rounded=0;orthogonalLoop=1;jettySize=auto;html=1;exitX=1;exitY=0.5;exitDx=0;exitDy=0;entryX=0;entryY=0.5;entryDx=0;entryDy=0;startArrow=none;startFill=0;endArrow=none;endFill=0;strokeColor=#000000;" parent="1" source="wh-YE4orqxIFHQZLRvOB-11" target="wh-YE4orqxIFHQZLRvOB-12" edge="1">
          <mxGeometry relative="1" as="geometry" />
        </mxCell>
        <mxCell id="wh-YE4orqxIFHQZLRvOB-11" value="封装，对象" style="whiteSpace=wrap;html=1;aspect=fixed;" parent="1" vertex="1">
          <mxGeometry x="540" y="424" width="80" height="80" as="geometry" />
        </mxCell>
        <mxCell id="wh-YE4orqxIFHQZLRvOB-28" style="edgeStyle=none;rounded=0;orthogonalLoop=1;jettySize=auto;html=1;exitX=1;exitY=0.5;exitDx=0;exitDy=0;startArrow=none;startFill=0;endArrow=none;endFill=0;strokeColor=#000000;" parent="1" source="wh-YE4orqxIFHQZLRvOB-12" target="wh-YE4orqxIFHQZLRvOB-14" edge="1">
          <mxGeometry relative="1" as="geometry" />
        </mxCell>
        <mxCell id="wh-YE4orqxIFHQZLRvOB-12" value="过滤" style="whiteSpace=wrap;html=1;aspect=fixed;" parent="1" vertex="1">
          <mxGeometry x="660" y="424" width="80" height="80" as="geometry" />
        </mxCell>
        <mxCell id="wh-YE4orqxIFHQZLRvOB-29" style="edgeStyle=none;rounded=0;orthogonalLoop=1;jettySize=auto;html=1;exitX=1;exitY=0.5;exitDx=0;exitDy=0;entryX=0;entryY=0.5;entryDx=0;entryDy=0;startArrow=none;startFill=0;endArrow=none;endFill=0;strokeColor=#000000;" parent="1" source="wh-YE4orqxIFHQZLRvOB-14" target="wh-YE4orqxIFHQZLRvOB-15" edge="1">
          <mxGeometry relative="1" as="geometry" />
        </mxCell>
        <mxCell id="wh-YE4orqxIFHQZLRvOB-30" style="edgeStyle=none;rounded=0;orthogonalLoop=1;jettySize=auto;html=1;exitX=1;exitY=0.5;exitDx=0;exitDy=0;entryX=0;entryY=0.5;entryDx=0;entryDy=0;startArrow=none;startFill=0;endArrow=none;endFill=0;strokeColor=#000000;" parent="1" source="wh-YE4orqxIFHQZLRvOB-14" target="wh-YE4orqxIFHQZLRvOB-16" edge="1">
          <mxGeometry relative="1" as="geometry" />
        </mxCell>
        <mxCell id="wh-YE4orqxIFHQZLRvOB-31" style="edgeStyle=none;rounded=0;orthogonalLoop=1;jettySize=auto;html=1;exitX=1;exitY=0.5;exitDx=0;exitDy=0;entryX=0;entryY=0.5;entryDx=0;entryDy=0;startArrow=none;startFill=0;endArrow=none;endFill=0;strokeColor=#000000;" parent="1" source="wh-YE4orqxIFHQZLRvOB-14" target="wh-YE4orqxIFHQZLRvOB-17" edge="1">
          <mxGeometry relative="1" as="geometry" />
        </mxCell>
        <mxCell id="wh-YE4orqxIFHQZLRvOB-32" style="edgeStyle=none;rounded=0;orthogonalLoop=1;jettySize=auto;html=1;exitX=1;exitY=0.5;exitDx=0;exitDy=0;entryX=0;entryY=0.5;entryDx=0;entryDy=0;startArrow=none;startFill=0;endArrow=none;endFill=0;strokeColor=#000000;" parent="1" source="wh-YE4orqxIFHQZLRvOB-14" target="wh-YE4orqxIFHQZLRvOB-18" edge="1">
          <mxGeometry relative="1" as="geometry" />
        </mxCell>
        <mxCell id="wh-YE4orqxIFHQZLRvOB-34" style="edgeStyle=none;rounded=0;orthogonalLoop=1;jettySize=auto;html=1;exitX=1;exitY=0.5;exitDx=0;exitDy=0;entryX=0;entryY=0.5;entryDx=0;entryDy=0;startArrow=none;startFill=0;endArrow=none;endFill=0;strokeColor=#000000;" parent="1" source="wh-YE4orqxIFHQZLRvOB-14" target="wh-YE4orqxIFHQZLRvOB-19" edge="1">
          <mxGeometry relative="1" as="geometry" />
        </mxCell>
        <mxCell id="wh-YE4orqxIFHQZLRvOB-35" style="edgeStyle=none;rounded=0;orthogonalLoop=1;jettySize=auto;html=1;exitX=1;exitY=0.5;exitDx=0;exitDy=0;entryX=0;entryY=0.5;entryDx=0;entryDy=0;startArrow=none;startFill=0;endArrow=none;endFill=0;strokeColor=#000000;" parent="1" source="wh-YE4orqxIFHQZLRvOB-14" target="wh-YE4orqxIFHQZLRvOB-20" edge="1">
          <mxGeometry relative="1" as="geometry" />
        </mxCell>
        <mxCell id="wh-YE4orqxIFHQZLRvOB-36" style="edgeStyle=none;rounded=0;orthogonalLoop=1;jettySize=auto;html=1;exitX=1;exitY=0.5;exitDx=0;exitDy=0;entryX=0;entryY=0.5;entryDx=0;entryDy=0;startArrow=none;startFill=0;endArrow=none;endFill=0;strokeColor=#000000;" parent="1" source="wh-YE4orqxIFHQZLRvOB-14" target="wh-YE4orqxIFHQZLRvOB-21" edge="1">
          <mxGeometry relative="1" as="geometry" />
        </mxCell>
        <mxCell id="wh-YE4orqxIFHQZLRvOB-37" style="edgeStyle=none;rounded=0;orthogonalLoop=1;jettySize=auto;html=1;exitX=1;exitY=0.5;exitDx=0;exitDy=0;startArrow=none;startFill=0;endArrow=none;endFill=0;strokeColor=#000000;entryX=0;entryY=0.5;entryDx=0;entryDy=0;" parent="1" source="wh-YE4orqxIFHQZLRvOB-14" edge="1" target="wh-YE4orqxIFHQZLRvOB-22">
          <mxGeometry relative="1" as="geometry">
            <mxPoint x="950" y="800" as="targetPoint" />
          </mxGeometry>
        </mxCell>
        <mxCell id="wh-YE4orqxIFHQZLRvOB-14" value="消息队列" style="whiteSpace=wrap;html=1;aspect=fixed;" parent="1" vertex="1">
          <mxGeometry x="790" y="424" width="80" height="80" as="geometry" />
        </mxCell>
        <mxCell id="wh-YE4orqxIFHQZLRvOB-39" style="edgeStyle=none;rounded=0;orthogonalLoop=1;jettySize=auto;html=1;exitX=1;exitY=0.5;exitDx=0;exitDy=0;entryX=0;entryY=0.5;entryDx=0;entryDy=0;startArrow=none;startFill=0;endArrow=none;endFill=0;strokeColor=#000000;" parent="1" source="wh-YE4orqxIFHQZLRvOB-15" target="wh-YE4orqxIFHQZLRvOB-24" edge="1">
          <mxGeometry relative="1" as="geometry" />
        </mxCell>
        <mxCell id="wh-YE4orqxIFHQZLRvOB-15" value="实时数据" style="whiteSpace=wrap;html=1;aspect=fixed;" parent="1" vertex="1">
          <mxGeometry x="1070" y="30" width="80" height="80" as="geometry" />
        </mxCell>
        <mxCell id="wh-YE4orqxIFHQZLRvOB-41" style="edgeStyle=none;rounded=0;orthogonalLoop=1;jettySize=auto;html=1;exitX=1;exitY=0.5;exitDx=0;exitDy=0;entryX=0;entryY=0.5;entryDx=0;entryDy=0;startArrow=none;startFill=0;endArrow=none;endFill=0;strokeColor=#000000;" parent="1" source="wh-YE4orqxIFHQZLRvOB-16" target="wh-YE4orqxIFHQZLRvOB-24" edge="1">
          <mxGeometry relative="1" as="geometry" />
        </mxCell>
        <mxCell id="wh-YE4orqxIFHQZLRvOB-16" value="分钟数据" style="whiteSpace=wrap;html=1;aspect=fixed;" parent="1" vertex="1">
          <mxGeometry x="1070" y="130" width="80" height="80" as="geometry" />
        </mxCell>
        <mxCell id="wh-YE4orqxIFHQZLRvOB-42" style="edgeStyle=none;rounded=0;orthogonalLoop=1;jettySize=auto;html=1;exitX=1;exitY=0.5;exitDx=0;exitDy=0;entryX=0;entryY=0.5;entryDx=0;entryDy=0;startArrow=none;startFill=0;endArrow=none;endFill=0;strokeColor=#000000;" parent="1" source="wh-YE4orqxIFHQZLRvOB-17" target="wh-YE4orqxIFHQZLRvOB-24" edge="1">
          <mxGeometry relative="1" as="geometry" />
        </mxCell>
        <mxCell id="wh-YE4orqxIFHQZLRvOB-17" value="小时数据" style="whiteSpace=wrap;html=1;aspect=fixed;" parent="1" vertex="1">
          <mxGeometry x="1070" y="240" width="80" height="80" as="geometry" />
        </mxCell>
        <mxCell id="wh-YE4orqxIFHQZLRvOB-43" style="edgeStyle=none;rounded=0;orthogonalLoop=1;jettySize=auto;html=1;exitX=1;exitY=0.5;exitDx=0;exitDy=0;startArrow=none;startFill=0;endArrow=none;endFill=0;strokeColor=#000000;" parent="1" source="wh-YE4orqxIFHQZLRvOB-18" edge="1">
          <mxGeometry relative="1" as="geometry">
            <mxPoint x="1500" y="460" as="targetPoint" />
          </mxGeometry>
        </mxCell>
        <mxCell id="wh-YE4orqxIFHQZLRvOB-18" value="日数据" style="whiteSpace=wrap;html=1;aspect=fixed;" parent="1" vertex="1">
          <mxGeometry x="1070" y="350" width="80" height="80" as="geometry" />
        </mxCell>
        <mxCell id="wh-YE4orqxIFHQZLRvOB-44" style="edgeStyle=none;rounded=0;orthogonalLoop=1;jettySize=auto;html=1;exitX=1;exitY=0.5;exitDx=0;exitDy=0;startArrow=none;startFill=0;endArrow=none;endFill=0;strokeColor=#000000;entryX=0;entryY=0.5;entryDx=0;entryDy=0;" parent="1" source="wh-YE4orqxIFHQZLRvOB-19" edge="1" target="wh-YE4orqxIFHQZLRvOB-24">
          <mxGeometry relative="1" as="geometry">
            <mxPoint x="1510" y="470" as="targetPoint" />
          </mxGeometry>
        </mxCell>
        <mxCell id="wh-YE4orqxIFHQZLRvOB-19" value="恒值" style="whiteSpace=wrap;html=1;aspect=fixed;" parent="1" vertex="1">
          <mxGeometry x="1070" y="450" width="80" height="80" as="geometry" />
        </mxCell>
        <mxCell id="wh-YE4orqxIFHQZLRvOB-45" style="edgeStyle=none;rounded=0;orthogonalLoop=1;jettySize=auto;html=1;exitX=1;exitY=0.5;exitDx=0;exitDy=0;startArrow=none;startFill=0;endArrow=none;endFill=0;strokeColor=#000000;entryX=0;entryY=0.5;entryDx=0;entryDy=0;" parent="1" source="wh-YE4orqxIFHQZLRvOB-20" edge="1" target="wh-YE4orqxIFHQZLRvOB-24">
          <mxGeometry relative="1" as="geometry">
            <mxPoint x="1500" y="470" as="targetPoint" />
          </mxGeometry>
        </mxCell>
        <mxCell id="wh-YE4orqxIFHQZLRvOB-20" value="零值" style="whiteSpace=wrap;html=1;aspect=fixed;" parent="1" vertex="1">
          <mxGeometry x="1070" y="560" width="80" height="80" as="geometry" />
        </mxCell>
        <mxCell id="wh-YE4orqxIFHQZLRvOB-46" style="edgeStyle=none;rounded=0;orthogonalLoop=1;jettySize=auto;html=1;exitX=1;exitY=0.5;exitDx=0;exitDy=0;startArrow=none;startFill=0;endArrow=none;endFill=0;strokeColor=#000000;entryX=0;entryY=0.5;entryDx=0;entryDy=0;" parent="1" source="wh-YE4orqxIFHQZLRvOB-21" edge="1" target="wh-YE4orqxIFHQZLRvOB-24">
          <mxGeometry relative="1" as="geometry">
            <mxPoint x="1500" y="470" as="targetPoint" />
          </mxGeometry>
        </mxCell>
        <mxCell id="wh-YE4orqxIFHQZLRvOB-21" value="超标" style="whiteSpace=wrap;html=1;aspect=fixed;" parent="1" vertex="1">
          <mxGeometry x="1070" y="660" width="80" height="80" as="geometry" />
        </mxCell>
        <mxCell id="wh-YE4orqxIFHQZLRvOB-47" style="edgeStyle=none;rounded=0;orthogonalLoop=1;jettySize=auto;html=1;exitX=1;exitY=0.5;exitDx=0;exitDy=0;startArrow=none;startFill=0;endArrow=none;endFill=0;strokeColor=#000000;entryX=0;entryY=0.5;entryDx=0;entryDy=0;" parent="1" source="wh-YE4orqxIFHQZLRvOB-22" edge="1" target="wh-YE4orqxIFHQZLRvOB-24">
          <mxGeometry relative="1" as="geometry">
            <mxPoint x="1500" y="470" as="targetPoint" />
          </mxGeometry>
        </mxCell>
        <mxCell id="wh-YE4orqxIFHQZLRvOB-22" value="标记错误" style="whiteSpace=wrap;html=1;aspect=fixed;" parent="1" vertex="1">
          <mxGeometry x="1070" y="760" width="80" height="80" as="geometry" />
        </mxCell>
        <mxCell id="wh-YE4orqxIFHQZLRvOB-38" style="edgeStyle=none;rounded=0;orthogonalLoop=1;jettySize=auto;html=1;exitX=0;exitY=0.5;exitDx=0;exitDy=0;entryX=1;entryY=0.5;entryDx=0;entryDy=0;startArrow=none;startFill=0;endArrow=none;endFill=0;strokeColor=#000000;" parent="1" source="wh-YE4orqxIFHQZLRvOB-23" target="wh-YE4orqxIFHQZLRvOB-14" edge="1">
          <mxGeometry relative="1" as="geometry" />
        </mxCell>
        <mxCell id="wh-YE4orqxIFHQZLRvOB-48" style="edgeStyle=none;rounded=0;orthogonalLoop=1;jettySize=auto;html=1;exitX=1;exitY=0.5;exitDx=0;exitDy=0;entryX=0;entryY=0.5;entryDx=0;entryDy=0;startArrow=none;startFill=0;endArrow=none;endFill=0;strokeColor=#000000;" parent="1" source="wh-YE4orqxIFHQZLRvOB-23" target="wh-YE4orqxIFHQZLRvOB-24" edge="1">
          <mxGeometry relative="1" as="geometry" />
        </mxCell>
        <mxCell id="wh-YE4orqxIFHQZLRvOB-23" value="完整报文" style="whiteSpace=wrap;html=1;aspect=fixed;" parent="1" vertex="1">
          <mxGeometry x="1070" y="860" width="80" height="80" as="geometry" />
        </mxCell>
        <mxCell id="wh-YE4orqxIFHQZLRvOB-24" value="db" style="whiteSpace=wrap;html=1;aspect=fixed;" parent="1" vertex="1">
          <mxGeometry x="1470" y="424" width="80" height="80" as="geometry" />
        </mxCell>
        <mxCell id="wh-YE4orqxIFHQZLRvOB-40" style="edgeStyle=none;rounded=0;orthogonalLoop=1;jettySize=auto;html=1;exitX=1;exitY=0.5;exitDx=0;exitDy=0;entryX=1;entryY=1;entryDx=0;entryDy=0;startArrow=none;startFill=0;endArrow=none;endFill=0;strokeColor=#000000;" parent="1" source="wh-YE4orqxIFHQZLRvOB-16" target="wh-YE4orqxIFHQZLRvOB-16" edge="1">
          <mxGeometry relative="1" as="geometry" />
        </mxCell>
        <mxCell id="Z6K1JSX6N_DPBCkSoQHQ-1" style="edgeStyle=none;rounded=0;orthogonalLoop=1;jettySize=auto;html=1;entryX=0;entryY=0.5;entryDx=0;entryDy=0;startArrow=none;startFill=0;endArrow=none;endFill=0;strokeColor=#000000;" edge="1" parent="1" source="wh-YE4orqxIFHQZLRvOB-24" target="wh-YE4orqxIFHQZLRvOB-24">
          <mxGeometry relative="1" as="geometry" />
        </mxCell>
      </root>
    </mxGraphModel>
  </diagram>
  <diagram id="fj4aDhGqZgzKhOpgODIV" name="Page-2">
    <mxGraphModel dx="754" dy="277" grid="1" gridSize="10" guides="1" tooltips="1" connect="1" arrows="1" fold="1" page="1" pageScale="1" pageWidth="827" pageHeight="1169" math="0" shadow="0">
      <root>
        <mxCell id="vLWGEDSu5NB5FWvwMv6L-0" />
        <mxCell id="vLWGEDSu5NB5FWvwMv6L-1" parent="vLWGEDSu5NB5FWvwMv6L-0" />
      </root>
    </mxGraphModel>
  </diagram>
</mxfile>
